<?xml version="1.0" standalone="no"?>
<!DOCTYPE svg PUBLIC "-//W3C//DTD SVG 20010904//EN"
 "http://www.w3.org/TR/2001/REC-SVG-20010904/DTD/svg10.dtd">
<svg version="1.0" xmlns="http://www.w3.org/2000/svg"
 width="225.000000pt" height="225.000000pt" viewBox="0 0 225.000000 225.000000"
 preserveAspectRatio="xMidYMid meet">

<g transform="translate(0.000000,225.000000) scale(0.100000,-0.100000)"
fill="#000000" stroke="none">
<path d="M637 2180 c-111 -23 -137 -39 -137 -84 0 -41 18 -57 93 -85 421 -155
679 -602 602 -1044 -58 -332 -291 -614 -602 -728 -75 -28 -93 -44 -93 -85 0
-45 26 -61 142 -84 115 -24 303 -26 415 -5 432 82 768 411 859 840 32 152 28
338 -11 489 -106 405 -435 713 -848 791 -110 21 -309 19 -420 -5z m393 -126
c418 -79 723 -409 771 -834 36 -315 -107 -647 -363 -843 -166 -127 -395 -204
-578 -195 l-64 3 69 45 c142 91 296 269 371 428 139 294 139 640 0 934 -75
158 -229 337 -368 427 -38 24 -68 45 -68 47 0 10 157 2 230 -12z"/>
</g>
</svg>
