<?xml version="1.0" standalone="no"?>
<!DOCTYPE svg PUBLIC "-//W3C//DTD SVG 20010904//EN"
 "http://www.w3.org/TR/2001/REC-SVG-20010904/DTD/svg10.dtd">
<svg version="1.0" xmlns="http://www.w3.org/2000/svg"
 width="512.000000pt" height="512.000000pt" viewBox="0 0 512.000000 512.000000"
 preserveAspectRatio="xMidYMid meet">

<g transform="translate(0.000000,512.000000) scale(0.100000,-0.100000)"
fill="#000000" stroke="none">
<path d="M2492 4624 c-18 -10 -45 -33 -60 -52 -27 -35 -27 -36 -30 -238 -4
-229 2 -253 66 -302 51 -39 133 -39 184 0 62 47 68 72 68 288 0 215 -6 241
-67 287 -43 33 -114 41 -161 17z"/>
<path d="M1153 4069 c-76 -23 -124 -111 -103 -191 10 -36 36 -68 153 -185 114
-113 150 -144 184 -154 117 -34 228 78 194 194 -10 33 -41 70 -145 175 -72 74
-142 140 -156 147 -37 19 -90 25 -127 14z"/>
<path d="M3865 4065 c-61 -22 -309 -275 -326 -332 -34 -117 77 -228 194 -194
33 10 70 41 175 145 74 72 141 145 150 161 22 42 20 113 -4 153 -37 65 -118
93 -189 67z"/>
<path d="M2440 3674 c-14 -2 -52 -9 -85 -15 -86 -15 -208 -56 -295 -99 -310
-156 -526 -441 -602 -795 -16 -78 -16 -332 0 -410 100 -464 433 -797 897 -897
78 -16 332 -16 410 0 464 100 799 435 896 897 17 79 17 333 1 410 -99 459
-428 793 -877 891 -68 15 -295 27 -345 18z m325 -339 c270 -73 497 -300 571
-575 25 -90 25 -310 0 -400 -61 -225 -222 -420 -430 -520 -126 -60 -190 -74
-346 -74 -156 0 -220 14 -346 74 -208 100 -369 295 -430 520 -25 90 -25 310 0
400 82 301 335 535 638 590 73 13 271 4 343 -15z"/>
<path d="M572 2703 c-18 -9 -45 -32 -60 -51 -39 -51 -38 -134 0 -184 47 -62
72 -68 288 -68 216 0 241 6 288 68 39 51 39 133 0 184 -48 62 -72 68 -290 68
-158 0 -199 -3 -226 -17z"/>
<path d="M4092 2703 c-18 -9 -45 -32 -60 -51 -39 -51 -38 -134 0 -184 47 -62
72 -68 288 -68 216 0 241 6 288 68 22 29 27 46 27 92 0 46 -5 63 -27 92 -48
62 -72 68 -290 68 -158 0 -199 -3 -226 -17z"/>
<path d="M1365 1571 c-24 -11 -94 -73 -172 -152 -106 -109 -133 -142 -142
-176 -32 -118 74 -224 192 -192 34 9 67 36 179 147 148 146 176 190 164 254
-10 54 -43 98 -89 118 -53 24 -81 25 -132 1z"/>
<path d="M3623 1570 c-46 -20 -79 -64 -89 -118 -12 -64 16 -108 164 -254 112
-111 145 -138 180 -147 117 -32 223 74 191 192 -9 34 -36 67 -142 176 -170
172 -213 193 -304 151z"/>
<path d="M2492 1104 c-18 -10 -45 -33 -60 -52 -27 -35 -27 -36 -30 -238 -4
-229 2 -253 66 -302 51 -39 133 -39 184 0 62 47 68 72 68 288 0 215 -6 241
-67 287 -43 33 -114 41 -161 17z"/>
</g>
</svg>
